<svg width="24" height="24" viewBox="0 0 24 24" fill="none" xmlns="http://www.w3.org/2000/svg">
<path fill-rule="evenodd" clip-rule="evenodd" d="M15.663 3.77345C13.8902 2.98355 11.9096 2.78786 10.0166 3.21558C8.12351 3.64329 6.41942 4.67148 5.15845 6.14681C3.89749 7.62214 3.14721 9.46555 3.01951 11.4021C2.89181 13.3387 3.39354 15.2647 4.44987 16.8928C5.50619 18.5209 7.06051 19.764 8.88102 20.4366C10.7015 21.1092 12.6907 21.1752 14.5518 20.625C16.413 20.0747 18.0464 18.9375 19.2084 17.3831C20.3705 15.8287 20.9989 13.9402 21 11.9994V11.08C21 10.5277 21.4477 10.08 22 10.08C22.5523 10.08 23 10.5277 23 11.08V12C22.9986 14.3721 22.2306 16.6807 20.8103 18.5806C19.39 20.4805 17.3936 21.8703 15.1189 22.5429C12.8442 23.2154 10.413 23.1347 8.18792 22.3126C5.96285 21.4906 4.06312 19.9713 2.77206 17.9814C1.48099 15.9914 0.86777 13.6375 1.02384 11.2705C1.17992 8.90361 2.09693 6.65055 3.63811 4.84737C5.17929 3.04419 7.26206 1.78751 9.57581 1.26475C11.8896 0.74199 14.3103 0.98116 16.477 1.94659C16.9815 2.17137 17.2082 2.76255 16.9834 3.26702C16.7587 3.77149 16.1675 3.99823 15.663 3.77345Z" fill="#3DD94C"/>
<path fill-rule="evenodd" clip-rule="evenodd" d="M22.7068 3.29256C23.0975 3.68289 23.0978 4.31605 22.7075 4.70677L12.7075 14.7168C12.52 14.9045 12.2656 15.01 12.0003 15.01C11.735 15.0101 11.4805 14.9047 11.2929 14.7171L8.2929 11.7171C7.90238 11.3266 7.90238 10.6934 8.2929 10.3029C8.68342 9.91239 9.31659 9.91239 9.70711 10.3029L11.9997 12.5955L21.2925 3.29326C21.6829 2.90255 22.316 2.90223 22.7068 3.29256Z" fill="#3DD94C"/>
</svg>
